<?xml version="1.0" standalone="no"?>
<!DOCTYPE svg PUBLIC "-//W3C//DTD SVG 20010904//EN"
 "http://www.w3.org/TR/2001/REC-SVG-20010904/DTD/svg10.dtd">
<svg version="1.0" xmlns="http://www.w3.org/2000/svg"
 width="3375.000000pt" height="1753.000000pt" viewBox="0 0 3375.000000 1753.000000"
 preserveAspectRatio="xMidYMid meet">

<g transform="translate(0.000000,1753.000000) scale(0.100000,-0.100000)"
fill="#000000" stroke="none">
<path d="M16122 16877 c-50 -111 -242 -537 -427 -947 -702 -1551 -747 -1650
-1288 -2845 -129 -286 -307 -680 -396 -875 -89 -195 -161 -358 -161 -362 0 -4
1247 -8 2771 -8 1524 0 2769 4 2767 8 -1 5 -58 98 -124 208 -67 109 -206 339
-309 509 -103 171 -278 459 -388 640 -110 182 -290 479 -400 660 -405 668
-458 756 -642 1060 -103 171 -200 330 -215 355 -60 99 -789 1303 -930 1535
-57 94 -114 189 -127 212 -14 24 -28 45 -32 48 -5 2 -49 -87 -99 -198z"/>
<path d="M15890 17010 c-41 -16 -118 -44 -170 -64 -546 -200 -716 -263 -970
-356 -679 -251 -1539 -567 -1730 -637 -113 -41 -853 -313 -1645 -605 -792
-291 -1532 -563 -1645 -605 -113 -41 -369 -136 -570 -210 -201 -74 -432 -159
-515 -189 -82 -31 -240 -89 -350 -129 -110 -40 -391 -144 -625 -230 -234 -86
-447 -164 -475 -175 -27 -11 -358 -132 -735 -270 -773 -284 -1085 -399 -1645
-605 -370 -137 -1255 -462 -2125 -782 -217 -80 -478 -176 -580 -213 -102 -37
-195 -71 -208 -75 -17 -5 -22 -13 -20 -28 l3 -22 1225 0 c1997 0 5430 16 5493
25 32 5 82 20 111 33 28 13 178 114 332 223 340 243 622 444 894 636 113 79
462 327 775 549 778 553 1645 1168 1845 1309 91 64 267 189 393 278 326 232
805 570 1072 755 311 216 857 595 982 681 99 69 600 422 870 614 88 63 130 99
126 108 -7 20 -27 17 -113 -16z"/>
<path d="M16516 16985 c-3 -9 4 -21 17 -29 22 -14 631 -370 737 -431 30 -17
204 -119 385 -225 182 -106 355 -208 385 -225 30 -18 161 -94 290 -170 129
-76 298 -175 375 -220 77 -45 257 -150 400 -235 143 -84 312 -183 375 -220 63
-37 203 -119 310 -182 107 -63 328 -193 490 -288 162 -95 426 -249 585 -343
160 -94 416 -244 570 -335 154 -90 305 -179 335 -197 30 -18 228 -134 440
-258 458 -267 953 -557 1440 -842 195 -114 474 -278 620 -363 146 -85 396
-232 555 -325 160 -94 322 -184 360 -200 161 -65 48 -61 1603 -64 877 -2 1412
-7 1412 -13 0 -5 -13 -43 -29 -83 -44 -111 -48 -140 -19 -167 12 -12 48 -34
78 -49 l55 -26 1115 -3 c977 -2 1124 -1 1185 13 78 17 126 42 150 78 15 23 14
31 -15 119 -16 52 -30 102 -30 112 0 15 63 16 789 16 680 0 790 2 794 14 4 10
-2 17 -16 21 -26 8 -1475 481 -2252 735 -115 38 -439 144 -720 235 -280 92
-742 242 -1025 335 -283 93 -731 239 -995 325 -264 86 -597 195 -740 241 -143
47 -278 91 -300 99 -55 18 -331 108 -1545 505 -575 188 -1153 377 -1285 420
-132 43 -476 155 -765 250 -289 94 -640 209 -780 255 -140 46 -732 240 -1315
430 -1813 593 -2092 684 -2370 775 -148 49 -499 164 -780 255 -280 91 -584
191 -675 221 -91 30 -170 54 -176 54 -7 0 -14 -7 -18 -15z"/>
<path d="M3425 11770 l-280 -5 -57 -28 c-31 -15 -71 -44 -88 -64 -28 -31 -31
-42 -27 -76 7 -53 39 -84 101 -97 36 -8 387 -10 1206 -8 1300 3 1169 -5 1269
85 l53 48 -68 61 c-38 33 -80 68 -94 77 -23 16 -90 17 -880 15 -470 -1 -981
-5 -1135 -8z"/>
<path d="M22750 11596 c-91 -44 -224 -117 -295 -162 -341 -213 -535 -286 -755
-287 -251 0 -464 102 -741 354 -90 82 -108 94 -159 109 -19 5 -66 19 -103 29
l-68 20 19 -30 c98 -155 294 -369 427 -467 443 -326 966 -291 1491 99 91 67
261 217 342 302 l44 45 -19 35 -18 35 -165 -82z"/>
<path d="M12865 11592 c-82 -43 -220 -122 -305 -176 -597 -377 -906 -363
-1440 65 -58 46 -117 92 -132 102 -26 16 -247 81 -254 74 -4 -4 70 -114 130
-193 61 -81 216 -234 300 -296 106 -79 278 -163 401 -195 86 -22 122 -26 255
-26 136 -1 168 2 261 25 309 78 566 236 837 517 105 109 125 136 117 161 -3
11 -9 20 -13 20 -4 0 -74 -36 -157 -78z"/>
<path d="M5836 11635 c-9 -13 -16 -27 -16 -30 0 -10 103 -151 166 -225 281
-337 623 -486 1011 -441 345 40 613 189 948 525 179 180 179 182 36 152 -90
-19 -157 -53 -341 -173 -153 -100 -362 -208 -469 -242 -170 -55 -365 -65 -506
-27 -150 42 -322 145 -495 297 -82 72 -125 102 -195 134 -125 58 -121 57 -139
30z"/>
<path d="M8347 11602 c105 -165 290 -381 315 -366 6 4 8 3 5 -4 -12 -19 128
-124 240 -181 164 -82 263 -105 453 -106 137 0 167 3 261 28 176 46 298 101
470 215 135 89 213 154 371 310 128 127 136 141 78 142 -41 0 -324 -139 -455
-223 -154 -100 -356 -199 -470 -232 -206 -60 -408 -47 -593 36 -123 55 -282
164 -404 276 -79 72 -120 97 -220 132 l-87 30 36 -57z"/>
<path d="M13232 11632 c-9 -27 -6 -37 35 -98 97 -145 235 -293 359 -385 263
-194 580 -256 916 -180 205 47 458 178 663 342 86 69 268 248 304 298 l22 30
-38 -6 c-139 -19 -235 -60 -449 -189 -354 -213 -571 -294 -791 -295 -232 0
-415 85 -692 324 -117 101 -164 129 -304 183 -10 3 -18 -5 -25 -24z"/>
<path d="M15760 11654 c0 -15 99 -164 166 -247 256 -323 570 -481 924 -464
357 17 699 198 1034 549 120 125 126 133 104 141 -36 14 -139 2 -183 -21 -22
-11 -88 -56 -147 -100 -365 -274 -681 -396 -933 -363 -201 27 -384 120 -635
323 -58 47 -117 92 -131 101 -27 18 -199 88 -199 81z"/>
<path d="M18199 11623 c45 -79 163 -230 249 -316 256 -260 537 -379 857 -364
234 11 456 90 695 247 137 90 228 167 368 309 116 118 122 126 100 134 -13 5
-53 7 -90 4 -76 -5 -147 -39 -271 -131 -93 -69 -275 -180 -387 -236 -187 -94
-304 -125 -475 -124 -100 1 -135 6 -208 28 -103 31 -204 80 -303 147 -73 49
-244 189 -279 229 -27 30 -59 45 -157 74 -45 13 -92 28 -102 32 -18 7 -18 5 3
-33z"/>
<path d="M23135 11629 c-16 -29 -15 -31 21 -82 302 -421 623 -617 1012 -617
93 0 240 22 342 50 154 43 388 172 536 295 85 71 238 220 307 299 l52 59 -67
-7 c-123 -12 -178 -37 -403 -185 -308 -202 -543 -291 -770 -291 -239 0 -456
101 -708 329 -68 62 -112 92 -192 130 -57 28 -106 51 -109 51 -3 0 -13 -14
-21 -31z"/>
<path d="M25616 11637 c120 -203 315 -415 483 -526 165 -108 324 -160 516
-168 256 -11 517 72 781 249 139 92 222 162 372 311 135 134 135 135 31 136
-83 1 -148 -23 -236 -86 -164 -120 -329 -225 -437 -277 -195 -95 -312 -126
-477 -126 -129 0 -228 23 -349 81 -146 70 -201 108 -454 316 -47 39 -75 52
-224 99 -8 2 -10 -1 -6 -9z"/>
<path d="M4560 9770 c0 -1525 -1 -1611 -17 -1618 -10 -4 -106 -7 -214 -7 -203
0 -239 6 -254 44 -4 9 -6 724 -5 1589 l1 1572 -416 0 -416 0 7 -22 c4 -13 25
-66 46 -118 96 -229 121 -299 153 -423 46 -180 65 -329 65 -507 0 -273 -33
-444 -156 -801 -179 -522 -205 -607 -230 -727 -31 -152 -37 -344 -15 -493 l14
-97 -25 -43 c-15 -25 -49 -63 -76 -87 -93 -78 -90 -130 13 -217 94 -81 94 -80
93 -310 0 -225 20 -393 71 -606 29 -124 41 -167 144 -524 112 -388 142 -577
134 -845 -8 -243 -39 -383 -193 -866 -29 -94 -54 -174 -54 -177 0 -4 189 -7
420 -7 l420 0 2 1568 c3 1544 3 1568 23 1607 11 22 33 47 50 55 40 20 160 18
303 -4 l112 -18 0 -1599 0 -1599 359 0 360 0 -15 53 c-8 28 -35 117 -59 197
-66 220 -102 354 -132 496 -24 115 -27 150 -27 324 0 274 33 445 153 795 38
110 101 292 140 405 39 113 82 259 97 325 33 150 42 343 24 489 -16 129 -8
156 70 239 97 104 98 123 19 215 -80 94 -91 133 -99 372 l-7 205 -86 335 c-98
385 -123 496 -171 786 -47 278 -64 412 -76 603 -17 267 4 425 96 718 26 81 59
190 74 241 l28 92 -374 0 -374 0 0 -1610z"/>
<path d="M29708 9768 l-3 -1603 -105 -17 c-58 -9 -144 -17 -192 -17 -79 -1
-89 1 -117 25 -17 14 -36 42 -43 62 -9 29 -14 391 -18 1582 -3 850 -7 1546 -8
1548 -1 1 -184 2 -407 2 l-405 0 0 -29 c0 -16 27 -84 60 -152 136 -284 200
-564 200 -881 0 -338 -73 -653 -249 -1070 -143 -342 -194 -589 -171 -833 6
-55 13 -129 16 -166 8 -81 -5 -110 -86 -186 -92 -86 -90 -122 8 -219 32 -33
69 -78 80 -101 20 -38 21 -52 16 -165 -14 -272 39 -581 176 -1023 147 -478
178 -619 187 -861 10 -253 -23 -420 -176 -909 -44 -144 -81 -264 -81 -268 0
-4 189 -7 420 -7 l420 0 0 1585 c0 1221 3 1589 12 1604 6 11 23 24 35 30 33
15 345 14 394 -1 l39 -11 0 -1603 0 -1604 375 -2 c253 -2 375 0 375 7 0 6 -31
89 -69 185 -159 405 -198 599 -188 940 8 279 36 403 172 770 148 398 168 486
215 970 22 223 40 346 59 392 5 15 25 44 44 65 93 105 92 133 -5 255 -52 65
-61 106 -68 333 l-7 210 -61 240 c-33 132 -104 396 -156 586 -143 522 -172
696 -163 978 7 230 30 329 182 781 30 90 55 168 55 172 0 4 -171 8 -380 8
l-380 0 -2 -1602z"/>
<path d="M9683 10482 c-66 -24 -124 -64 -174 -120 -85 -98 27 117 -1511 -2882
-281 -547 -646 -1256 -811 -1575 -382 -738 -611 -1193 -762 -1514 -97 -206
-129 -264 -169 -308 -50 -55 -112 -93 -176 -109 -19 -5 -1051 -9 -2320 -9
l-2285 0 -3 -247 -2 -248 3400 0 c3050 0 3409 2 3478 16 196 40 301 138 359
339 16 56 18 177 23 1685 5 1485 7 1630 23 1680 33 110 104 178 215 206 54 13
72 14 115 3 62 -15 131 -75 181 -158 82 -137 1130 -2110 1701 -3201 281 -537
276 -530 334 -589 90 -92 208 -132 331 -111 189 32 296 143 332 348 9 50 13
503 15 1755 l2 1688 38 61 c46 74 126 164 164 183 61 32 115 14 251 -83 74
-53 80 -61 129 -156 29 -56 233 -445 454 -866 531 -1009 938 -1790 1171 -2245
176 -345 193 -374 254 -436 48 -50 80 -73 125 -90 l60 -24 715 0 c779 0 781 0
894 57 198 100 297 338 241 577 -21 87 -57 162 -307 631 -836 1571 -1388 2635
-2597 5008 -138 271 -269 519 -290 550 -51 75 -110 128 -180 161 -49 23 -69
26 -156 26 -119 0 -166 -17 -246 -92 -73 -67 -92 -101 -304 -518 -212 -418
-579 -1127 -694 -1344 -58 -109 -93 -161 -145 -218 -151 -163 -223 -155 -422
49 l-82 83 -277 550 c-153 303 -303 600 -335 660 -31 61 -122 236 -201 390
-124 242 -152 287 -200 336 -105 105 -238 143 -356 101z"/>
<path d="M19382 10350 c-589 -41 -1098 -233 -1562 -590 -127 -98 -424 -398
-534 -540 -806 -1039 -1005 -2425 -523 -3640 283 -715 816 -1360 1410 -1709
303 -177 667 -304 1017 -355 223 -32 339 -35 1385 -36 878 -1 1069 1 1110 13
175 49 269 162 318 384 21 92 22 123 22 518 0 363 -3 429 -18 488 -44 173
-130 266 -293 314 -54 16 -156 18 -1269 23 -1126 5 -1214 7 -1263 23 -113 38
-165 119 -182 284 -7 66 -10 709 -8 1953 3 1760 4 1858 21 1908 38 111 149
192 263 192 53 0 74 -6 136 -38 75 -40 454 -283 1780 -1146 200 -129 253 -157
343 -181 207 -53 387 46 456 252 30 92 38 253 38 788 0 556 -8 737 -40 820
-40 109 -110 189 -198 228 -121 54 -63 51 -1221 53 -591 1 -1126 -2 -1188 -6z"/>
<path d="M23305 10339 c-204 -34 -328 -154 -371 -358 -12 -62 -14 -459 -12
-3078 l3 -3008 22 -77 c29 -100 55 -150 110 -209 55 -59 138 -102 241 -125 64
-15 128 -18 387 -19 171 0 2163 1 4428 3 l4117 2 0 243 0 244 -874 7 c-481 4
-1502 4 -2268 0 -766 -4 -1423 -4 -1460 0 -76 8 -122 33 -150 82 -17 29 -18
73 -21 635 -3 640 -4 657 -53 767 -33 75 -111 154 -187 188 -51 23 -76 28
-142 28 -155 1 -158 -1 -1076 -608 -546 -361 -760 -498 -834 -532 -90 -43
-198 -62 -253 -46 -77 23 -146 121 -189 267 -17 56 -18 212 -23 2650 -5 2419
-6 2594 -23 2648 -52 174 -145 257 -333 292 -60 12 -170 15 -532 14 -252 -1
-479 -5 -507 -10z"/>
<path d="M3063 4358 c-64 -14 -93 -54 -93 -128 0 -48 5 -64 26 -89 14 -17 42
-35 62 -41 42 -11 2285 -15 2368 -3 43 6 56 14 113 71 l65 65 -40 35 c-21 19
-59 48 -84 66 l-45 31 -1165 1 c-704 1 -1182 -2 -1207 -8z"/>
<path d="M28370 4361 c-41 -3 -84 -11 -95 -18 -38 -21 -146 -112 -144 -120 6
-18 145 -107 187 -120 67 -20 2178 -19 2244 1 26 7 80 37 121 66 l76 52 -53
43 c-29 23 -72 55 -96 71 l-44 29 -1060 1 c-584 1 -1095 -2 -1136 -5z"/>
<path d="M18538 3164 c-91 -28 -161 -146 -143 -242 41 -227 357 -245 421 -24
49 168 -108 319 -278 266z"/>
<path d="M20589 3167 c-60 -22 -96 -54 -123 -109 -73 -147 28 -318 187 -318
124 0 218 94 218 220 1 61 -7 83 -48 138 -46 62 -160 96 -234 69z"/>
<path d="M30241 3134 c-141 -25 -248 -49 -253 -56 -16 -26 -7 -36 35 -43 96
-16 118 -48 99 -144 -6 -31 -111 -393 -233 -806 -203 -687 -222 -757 -223
-830 -1 -70 2 -84 23 -114 14 -20 46 -44 79 -59 74 -34 165 -28 255 16 76 38
182 141 268 262 56 78 59 85 43 97 -28 21 -40 16 -69 -29 -16 -24 -55 -71 -88
-105 -46 -48 -67 -63 -88 -63 -43 0 -52 27 -35 107 8 37 130 458 270 936 141
477 256 870 256 872 0 13 -118 -1 -339 -41z"/>
<path d="M31088 3166 c-95 -34 -141 -95 -146 -196 -5 -75 14 -124 65 -172 138
-131 364 -26 363 168 -1 91 -78 183 -169 203 -64 13 -67 13 -113 -3z"/>
<path d="M32015 2739 c-167 -168 -310 -268 -472 -330 -60 -24 -61 -25 -76 -76
l-14 -53 98 0 c65 0 99 -4 99 -11 0 -6 -56 -203 -124 -437 -150 -516 -164
-583 -135 -659 49 -130 260 -151 428 -43 62 39 177 159 214 223 28 46 28 49
10 62 -10 8 -21 15 -24 15 -4 0 -32 -32 -64 -71 -60 -75 -126 -129 -156 -129
-10 0 -25 10 -34 23 -21 33 -18 47 131 567 l129 450 97 0 97 0 21 68 c11 37
23 75 26 85 5 15 -4 17 -90 17 -53 0 -96 4 -96 8 0 4 25 93 55 197 30 103 55
192 55 197 0 4 -15 8 -33 8 -28 0 -47 -15 -142 -111z"/>
<path d="M3065 2450 c-121 -22 -234 -42 -252 -45 -20 -4 -34 -13 -39 -27 -8
-26 10 -38 59 -38 27 0 45 -7 64 -26 23 -23 25 -30 18 -82 -4 -31 -56 -229
-116 -441 -118 -415 -139 -519 -120 -589 26 -94 114 -150 218 -139 164 17 344
178 576 514 39 56 72 101 73 100 2 -2 -17 -72 -42 -157 -25 -85 -50 -192 -56
-236 -11 -78 -10 -84 13 -130 35 -70 89 -97 189 -92 100 4 186 45 271 130 61
61 169 212 169 235 0 7 -10 18 -22 24 -19 10 -24 9 -37 -12 -31 -46 -112 -139
-136 -155 -19 -12 -28 -13 -45 -4 -19 10 -21 17 -16 53 5 31 240 849 312 1090
5 15 -4 17 -94 17 -54 0 -139 -3 -188 -6 l-90 -7 -68 -230 c-62 -210 -74 -241
-134 -342 -187 -317 -370 -521 -461 -513 -31 3 -36 7 -39 31 -3 20 276 1026
305 1105 8 21 -76 13 -312 -28z"/>
<path d="M4757 2445 c-131 -24 -245 -46 -253 -49 -8 -3 -14 -17 -14 -31 0 -23
4 -25 44 -25 67 0 100 -32 98 -94 -3 -73 -18 -129 -253 -922 -32 -111 -59
-207 -59 -213 0 -8 57 -11 188 -11 l187 0 59 218 c48 179 68 235 113 322 130
250 324 499 431 554 59 30 102 16 102 -34 0 -15 -48 -188 -106 -386 -147 -499
-153 -535 -111 -608 32 -57 84 -81 177 -81 66 0 85 4 145 34 85 41 188 141
263 253 l51 76 -24 16 c-13 9 -26 16 -29 16 -2 0 -24 -28 -49 -62 -64 -89
-109 -130 -138 -126 -45 6 -36 52 75 423 57 193 112 379 121 415 21 80 24 206
6 240 -19 36 -61 79 -93 96 -40 21 -138 18 -203 -7 -67 -25 -194 -118 -261
-192 -64 -70 -187 -231 -258 -337 -31 -46 -56 -81 -56 -77 0 4 41 147 90 316
50 170 90 312 90 315 0 14 -110 1 -333 -39z"/>
<path d="M8276 2479 c-191 -20 -365 -109 -533 -272 -135 -131 -236 -296 -290
-474 -23 -77 -26 -106 -27 -233 -1 -137 0 -148 25 -200 58 -120 124 -181 240
-220 56 -20 78 -22 179 -17 224 10 395 87 577 260 208 197 333 475 333 737 0
235 -146 396 -385 423 -22 2 -75 0 -119 -4z m58 -84 c19 -9 43 -33 56 -57 21
-38 22 -48 17 -162 -6 -131 -29 -253 -77 -413 -79 -267 -222 -541 -312 -601
-76 -50 -174 -27 -214 50 -21 40 -20 178 2 308 47 278 212 689 329 817 60 66
136 88 199 58z"/>
<path d="M9350 2443 c-140 -24 -256 -45 -257 -46 -1 -1 -4 -14 -8 -28 -6 -26
-5 -27 49 -31 36 -3 63 -12 77 -24 38 -34 22 -109 -141 -668 -84 -286 -154
-525 -157 -533 -4 -11 30 -13 186 -13 l190 0 20 67 c11 38 41 139 66 226 56
195 120 324 263 532 167 242 312 358 312 248 0 -19 -276 -1004 -297 -1061 -4
-9 37 -12 184 -12 l190 0 58 198 c31 108 72 233 89 277 69 175 307 524 414
608 38 29 73 35 90 14 15 -18 4 -61 -116 -472 -98 -337 -105 -366 -106 -453
l-1 -93 41 -39 c24 -22 60 -44 85 -50 148 -40 355 87 483 299 37 59 37 63 20
76 -28 21 -38 18 -57 -14 -23 -39 -114 -139 -139 -152 -14 -8 -24 -7 -35 2
-25 21 -12 76 97 444 56 187 108 369 116 405 19 89 18 194 -2 236 -52 108
-191 131 -322 51 -108 -64 -266 -246 -427 -490 -32 -48 -60 -86 -61 -84 -2 2
15 68 37 148 84 301 76 397 -41 457 -38 19 -54 22 -105 17 -168 -18 -305 -142
-545 -496 -49 -73 -90 -128 -90 -124 0 5 41 145 90 311 50 166 90 304 90 308
0 13 -97 2 -340 -41z"/>
<path d="M11702 2445 c-133 -23 -244 -44 -246 -46 -2 -2 -6 -14 -10 -25 -6
-20 -2 -22 53 -28 81 -9 95 -27 89 -108 -3 -35 -33 -160 -68 -278 -271 -939
-362 -1243 -383 -1291 -43 -99 -125 -168 -199 -169 -20 0 -28 -7 -37 -30 l-10
-30 403 0 404 0 6 23 c9 33 8 37 -12 37 -38 0 -123 32 -143 53 -35 37 -23 145
41 367 29 102 53 186 55 188 1 1 32 -9 69 -23 160 -60 378 -12 556 123 225
170 387 434 435 711 65 369 -73 602 -333 561 -37 -6 -86 -20 -110 -30 -60 -27
-170 -101 -232 -156 -28 -26 -52 -45 -54 -43 -2 2 9 49 25 104 39 134 39 135
-13 134 -24 -1 -152 -20 -286 -44z m549 -198 c59 -39 74 -85 73 -217 -3 -311
-144 -671 -325 -835 -103 -93 -213 -87 -284 15 l-28 41 118 422 119 422 68 68
c104 104 188 132 259 84z"/>
<path d="M13275 2450 c-93 -21 -196 -43 -228 -50 -33 -6 -61 -18 -64 -26 -8
-20 -4 -23 53 -33 61 -12 94 -46 94 -99 0 -21 -61 -284 -135 -584 -74 -301
-135 -549 -135 -552 0 -3 80 -6 179 -6 l179 0 27 113 c62 252 184 562 294 746
70 118 146 190 184 175 7 -2 21 -19 31 -37 11 -18 30 -44 44 -59 31 -34 82
-37 129 -9 63 39 124 217 107 316 -15 91 -60 135 -138 135 -146 -1 -246 -125
-478 -595 -60 -121 -107 -211 -104 -200 3 11 50 189 105 395 56 207 101 384
101 393 0 26 -50 21 -245 -23z"/>
<path d="M14933 2479 c-314 -30 -632 -284 -782 -626 -40 -91 -59 -165 -73
-284 -20 -168 15 -291 112 -393 75 -80 146 -108 280 -114 211 -8 396 61 589
220 154 128 295 351 346 548 26 100 37 243 25 312 -24 128 -95 231 -197 285
-96 51 -172 64 -300 52z m64 -89 c55 -33 68 -71 66 -186 -5 -276 -130 -669
-295 -930 -69 -111 -149 -159 -222 -134 -38 12 -80 53 -95 93 -39 102 23 433
133 716 87 222 182 391 239 423 71 41 127 47 174 18z"/>
<path d="M16011 2444 c-134 -23 -250 -45 -257 -48 -8 -3 -14 -17 -14 -31 0
-23 4 -25 40 -25 95 0 116 -34 94 -156 -8 -48 -16 -90 -18 -93 -6 -10 -286
-971 -286 -981 0 -6 74 -10 188 -10 l188 0 62 223 c52 183 73 241 118 327 152
286 369 560 444 560 15 0 30 -6 33 -14 8 -21 -3 -61 -153 -588 -77 -267 -140
-491 -140 -497 0 -8 56 -11 186 -9 l186 3 63 211 c74 246 99 310 162 419 62
108 184 282 258 368 101 118 172 140 168 51 -1 -22 -51 -212 -112 -422 -118
-410 -133 -484 -108 -543 29 -70 121 -116 210 -105 73 8 182 64 254 130 58 53
173 209 173 234 0 10 -30 32 -43 32 -2 0 -29 -33 -60 -72 -98 -129 -155 -150
-150 -57 2 24 52 211 113 414 126 421 145 522 116 599 -10 25 -33 59 -52 75
-97 86 -238 53 -391 -92 -78 -74 -240 -281 -327 -419 -27 -43 -51 -77 -52 -75
-2 1 11 50 27 107 79 279 89 367 48 440 -25 44 -65 74 -116 85 -44 9 -138 -10
-201 -41 -99 -49 -264 -236 -437 -497 -32 -48 -59 -86 -61 -85 -1 2 38 138 87
302 49 165 89 306 89 313 0 21 -64 15 -329 -33z"/>
<path d="M18595 2479 c-93 -11 -485 -76 -490 -80 -2 -2 -6 -16 -10 -30 -6 -24
-4 -26 18 -22 37 7 94 -15 117 -45 18 -22 20 -34 14 -76 -3 -27 -62 -239 -129
-471 -67 -231 -126 -444 -130 -472 -19 -138 69 -228 219 -225 59 1 82 7 145
38 92 45 191 142 270 262 44 68 51 85 41 97 -21 26 -37 17 -83 -47 -48 -67
-121 -142 -148 -151 -9 -3 -27 2 -39 10 -19 13 -21 22 -17 58 4 23 78 293 167
598 88 306 160 559 160 562 0 6 -11 5 -105 -6z"/>
<path d="M19311 2479 c-133 -23 -258 -121 -300 -234 -25 -67 -28 -178 -6 -251
18 -61 85 -159 191 -277 210 -236 245 -289 252 -386 5 -78 -8 -111 -62 -159
-86 -76 -245 -46 -347 66 -44 47 -86 130 -123 245 -18 56 -28 73 -44 75 -15 2
-23 -3 -26 -20 -8 -35 -66 -443 -66 -462 0 -23 43 -21 65 4 9 10 32 24 50 30
33 11 34 11 240 -34 141 -31 272 -16 387 46 167 89 261 277 230 458 -21 123
-81 214 -296 450 -106 115 -139 171 -140 235 -1 56 19 91 72 122 82 48 210 16
294 -75 49 -54 95 -150 105 -222 7 -50 11 -55 35 -58 23 -3 28 1 33 30 11 64
55 393 55 410 0 25 -38 23 -66 -3 -33 -31 -95 -34 -204 -9 -110 25 -251 33
-329 19z"/>
<path d="M20406 2446 c-216 -36 -250 -44 -257 -61 -12 -33 -11 -35 27 -35 83
0 132 -51 119 -126 -4 -22 -63 -232 -132 -469 -140 -482 -149 -536 -105 -607
45 -72 130 -104 236 -87 128 21 257 123 370 294 l59 88 -22 18 c-23 18 -23 18
-80 -59 -61 -80 -114 -135 -142 -145 -9 -3 -27 2 -39 10 -19 14 -22 22 -17 62
4 33 237 857 323 1144 5 15 -1 17 -43 16 -26 -1 -160 -20 -297 -43z"/>
<path d="M21310 2444 c-135 -24 -250 -46 -256 -48 -6 -2 -13 -15 -16 -29 -5
-23 -2 -25 48 -29 34 -3 62 -12 75 -24 40 -36 24 -114 -135 -659 -81 -275
-151 -512 -156 -527 l-9 -28 192 0 192 0 59 218 c49 181 68 235 113 322 133
253 324 499 431 554 59 30 102 16 102 -33 0 -15 -49 -194 -110 -400 -121 -414
-135 -471 -128 -535 16 -135 174 -187 339 -110 85 40 181 131 258 244 l62 89
-30 16 -30 15 -33 -47 c-113 -165 -205 -194 -172 -54 7 31 60 215 119 409 116
388 134 476 110 557 -14 50 -56 100 -102 124 -36 18 -137 13 -198 -10 -68 -25
-194 -119 -265 -195 -56 -62 -231 -292 -274 -362 -15 -24 -29 -42 -31 -40 -2
2 36 142 86 312 49 170 89 311 89 313 0 10 -114 -4 -330 -43z"/>
<path d="M23265 2480 c-348 -49 -569 -260 -553 -529 8 -137 78 -241 211 -312
36 -19 55 -34 47 -37 -40 -12 -181 -88 -226 -122 -89 -67 -128 -184 -90 -273
13 -31 109 -127 127 -127 5 0 9 -4 9 -8 0 -5 -32 -16 -71 -25 -220 -53 -349
-158 -349 -285 0 -93 73 -184 194 -241 134 -65 206 -76 466 -75 251 0 319 12
450 76 184 90 291 292 246 466 -47 186 -186 270 -591 357 -125 27 -147 35
-182 68 -46 42 -27 82 65 142 l42 28 105 -13 c190 -23 340 0 487 77 201 105
309 358 229 538 l-20 45 104 0 104 0 15 53 c8 28 18 64 21 80 l7 27 -191 0
-190 0 -63 34 c-35 19 -86 39 -114 45 -75 15 -221 21 -289 11z m213 -86 c13
-8 32 -29 43 -47 56 -87 -23 -437 -135 -600 -73 -107 -142 -136 -224 -95 -69
34 -95 89 -87 183 24 279 147 539 271 573 46 12 100 7 132 -14z m-259 -1455
c165 -53 227 -127 200 -235 -32 -128 -179 -193 -403 -181 -222 12 -361 100
-374 237 -9 101 47 181 171 243 l67 34 136 -38 c75 -21 166 -48 203 -60z"/>
<path d="M25595 2477 c-102 -27 -209 -99 -330 -221 -106 -107 -176 -207 -244
-343 -88 -176 -123 -317 -123 -488 0 -170 58 -297 157 -345 65 -31 169 -25
252 15 81 40 210 173 298 307 38 59 71 106 73 104 4 -5 -223 -774 -248 -837
-39 -99 -94 -148 -187 -167 -29 -6 -38 -14 -44 -35 l-7 -27 394 0 394 0 10 26
c14 35 14 34 -21 34 -43 0 -125 38 -144 66 -22 33 -19 107 9 215 13 52 123
434 244 849 121 415 224 767 227 783 l7 27 -172 -2 -173 -3 -27 -90 -27 -89
-16 55 c-9 30 -27 71 -40 90 -48 71 -157 103 -262 76z m200 -121 c95 -101 66
-330 -80 -631 -104 -216 -220 -362 -306 -385 -37 -10 -45 -9 -68 8 -43 31 -56
69 -54 155 6 284 219 792 363 869 19 10 52 18 74 18 31 0 45 -7 71 -34z"/>
<path d="M26840 2443 c-140 -25 -256 -46 -257 -47 -1 0 -4 -13 -8 -27 -6 -26
-5 -27 49 -31 82 -7 100 -27 93 -103 -3 -33 -49 -213 -102 -400 -131 -461
-135 -480 -137 -560 -3 -144 77 -222 214 -213 167 12 340 165 583 513 37 53
69 94 71 92 2 -2 -17 -73 -43 -158 -41 -137 -46 -165 -47 -256 -1 -95 1 -103
24 -128 14 -15 43 -36 64 -47 58 -30 169 -22 251 18 77 37 183 142 254 252 52
79 53 83 35 97 -29 22 -36 18 -72 -35 -34 -50 -124 -140 -140 -140 -5 0 -17 9
-26 19 -21 23 -31 -14 159 637 80 273 145 501 145 506 0 9 -198 9 -304 -1
l-69 -6 -68 -228 c-63 -212 -73 -238 -139 -350 -205 -351 -424 -571 -490 -492
-16 19 -21 -1 151 602 82 288 149 525 149 528 0 12 -102 0 -340 -42z"/>
<path d="M28833 2475 c-111 -30 -224 -106 -339 -228 -93 -97 -154 -183 -213
-303 -96 -193 -142 -357 -142 -509 -1 -238 91 -374 253 -375 146 0 283 109
451 362 39 59 73 105 75 104 1 -2 -11 -50 -28 -107 -40 -134 -50 -239 -26
-284 27 -49 81 -75 160 -75 168 0 322 106 443 304 35 56 35 60 18 72 -27 20
-30 19 -69 -35 -75 -102 -151 -151 -184 -117 -23 23 -16 52 159 652 83 284
148 518 145 521 -3 3 -82 2 -175 -2 l-171 -7 -21 -72 c-11 -39 -23 -80 -26
-91 -4 -14 -12 -1 -28 48 -43 135 -136 181 -282 142z m191 -116 c86 -102 45
-393 -94 -670 -157 -311 -327 -445 -386 -304 -58 140 48 543 220 838 93 159
196 213 260 136z"/>
<path d="M30910 2446 c-135 -23 -250 -45 -256 -49 -7 -4 -14 -16 -17 -27 -4
-16 0 -20 18 -20 46 0 85 -13 111 -37 25 -23 26 -29 21 -81 -4 -31 -61 -244
-128 -472 -154 -527 -159 -576 -67 -654 73 -63 190 -67 306 -10 77 38 182 141
257 253 58 86 63 97 48 109 -28 20 -39 14 -75 -40 -47 -70 -128 -153 -156
-161 -38 -9 -64 25 -56 71 4 20 78 285 165 588 88 303 159 557 159 563 0 18
-71 11 -330 -33z"/>
<path d="M33305 2485 c-5 -2 -22 -6 -37 -9 -72 -16 -136 -117 -125 -198 5 -38
16 -52 91 -123 80 -75 86 -83 86 -121 0 -87 -38 -170 -183 -399 -68 -107 -240
-356 -243 -352 -2 2 -8 104 -14 227 -15 324 -39 624 -56 707 -29 141 -85 263
-122 263 -9 -1 -114 -29 -232 -64 -206 -61 -215 -64 -218 -90 -3 -24 -1 -26
38 -26 59 0 105 -23 134 -67 47 -72 55 -136 76 -595 21 -455 24 -657 13 -772
-6 -66 -9 -72 -51 -113 -56 -53 -124 -87 -156 -79 -14 3 -45 31 -71 60 -94
111 -206 127 -293 43 -88 -85 -70 -235 36 -308 52 -36 150 -39 228 -7 186 75
386 272 699 690 285 379 552 817 601 984 9 32 17 91 18 130 1 62 -3 76 -29
120 -19 30 -46 57 -70 70 -39 21 -100 36 -120 29z"/>
<path d="M6800 2459 c-303 -79 -582 -354 -690 -679 -37 -112 -55 -263 -42
-353 25 -177 112 -287 270 -343 121 -43 323 -27 467 37 87 38 183 106 276 196
88 85 100 106 68 126 -12 7 -30 -2 -78 -40 -146 -118 -324 -169 -442 -128 -59
21 -122 85 -154 158 -27 58 -27 65 -22 191 11 276 112 514 291 684 63 60 85
74 141 91 96 30 149 26 188 -14 27 -27 20 -44 -43 -106 -92 -91 -104 -177 -36
-245 67 -67 160 -66 237 3 59 53 82 105 83 184 1 117 -69 209 -186 244 -74 22
-234 19 -328 -6z"/>
<path d="M363 1519 c-125 -61 -171 -226 -97 -345 55 -90 168 -133 273 -104 57
15 135 88 157 146 35 91 -2 220 -79 277 -69 52 -180 63 -254 26z"/>
<path d="M1145 1525 c-59 -21 -120 -91 -140 -159 -56 -192 144 -367 325 -285
96 43 144 117 144 219 0 74 -22 125 -76 177 -63 61 -163 80 -253 48z"/>
<path d="M1910 1524 c-117 -51 -175 -187 -130 -306 50 -134 197 -194 325 -134
159 74 187 286 52 401 -22 19 -57 40 -76 45 -52 14 -131 12 -171 -6z"/>
</g>
</svg>
